<?xml version="1.0" standalone="no"?>
<!DOCTYPE svg PUBLIC "-//W3C//DTD SVG 20010904//EN"
 "http://www.w3.org/TR/2001/REC-SVG-20010904/DTD/svg10.dtd">
<svg version="1.0" xmlns="http://www.w3.org/2000/svg"
 width="128.000000pt" height="128.000000pt" viewBox="0 0 128.000000 128.000000"
 preserveAspectRatio="xMidYMid meet">

<g transform="translate(0.000000,128.000000) scale(0.100000,-0.100000)"
fill="#c0cad8" stroke="none">
<path d="M462 1174 c-167 -56 -296 -180 -354 -339 -30 -83 -37 -259 -13 -341
36 -126 104 -229 200 -301 108 -82 203 -113 348 -113 165 0 293 55 408 177
100 105 149 229 149 378 0 157 -48 282 -149 388 -116 123 -242 177 -413 177
-83 0 -117 -5 -176 -26z m371 -102 c76 -35 174 -122 214 -190 84 -142 84 -342
0 -484 -31 -54 -130 -149 -183 -176 -80 -41 -151 -55 -254 -50 -85 4 -105 9
-172 41 -239 115 -338 398 -223 633 46 95 126 174 219 218 90 43 99 45 226 42
93 -3 113 -6 173 -34z"/>
<path d="M405 870 l-29 -30 99 -100 100 -100 -100 -100 -100 -100 33 -32 32
-33 100 100 100 100 100 -100 100 -100 32 33 33 32 -100 100 -100 100 100 100
100 100 -33 32 -32 33 -100 -100 -100 -100 -98 98 c-53 53 -100 97 -103 97 -3
0 -18 -14 -34 -30z"/>
</g>
</svg>
